<svg width="26" height="26" viewBox="0 0 26 26" fill="none" xmlns="http://www.w3.org/2000/svg">
<path d="M3 4H6.25L8.6875 17.8125H21.6875M8.6875 14.5625H21.3544C21.4483 14.5626 21.5394 14.5301 21.6121 14.4705C21.6848 14.411 21.7346 14.3281 21.753 14.236L23.2155 6.92348C23.2273 6.86451 23.2259 6.80366 23.2113 6.74532C23.1967 6.68698 23.1694 6.6326 23.1313 6.5861C23.0931 6.53961 23.0451 6.50216 22.9908 6.47646C22.9364 6.45077 22.877 6.43746 22.8169 6.4375H7.0625M10.3125 21.0625C10.3125 21.5112 9.94873 21.875 9.5 21.875C9.05127 21.875 8.6875 21.5112 8.6875 21.0625C8.6875 20.6138 9.05127 20.25 9.5 20.25C9.94873 20.25 10.3125 20.6138 10.3125 21.0625ZM21.6875 21.0625C21.6875 21.5112 21.3237 21.875 20.875 21.875C20.4263 21.875 20.0625 21.5112 20.0625 21.0625C20.0625 20.6138 20.4263 20.25 20.875 20.25C21.3237 20.25 21.6875 20.6138 21.6875 21.0625Z" stroke="#1A1919" stroke-width="2" stroke-linecap="round" stroke-linejoin="round"/>
</svg>
